<svg version="1.1" width="75" height="45" viewBox="-1 -1 75 45" xmlns="http://www.w3.org/2000/svg" xmlns:xlink="http://www.w3.org/1999/xlink">
  <!-- Exported by Scratch - http://scratch.mit.edu/ -->
  <g id="ID0.621764665003866" transform="matrix(1, 0, 0, 1, -255, -399)">
    <path id="ID0.6126240347512066" fill="#004945" d="M 255.458 420.945 L 257.787 425.084 L 257.787 442.680 L 264.530 442.680 L 272.916 431.811 L 272.916 420.945 L 255.458 420.945 "/>
    <path id="ID0.08493389608338475" fill="#006666" d="M 272.916 431.811 L 318.548 431.813 C 328.710 431.813 328.710 420.945 328.710 420.945 L 272.916 420.945 L 272.916 431.811 Z "/>
    <path id="ID0.4507744046859443" fill="#004945" d="M 255.458 420.945 L 257.787 416.804 L 257.787 399.209 L 264.530 399.209 L 272.916 410.080 L 272.916 420.945 L 255.458 420.945 "/>
    <path id="ID0.9562527420930564" fill="#006666" d="M 272.916 410.080 L 318.548 410.078 C 328.710 410.078 328.710 420.945 328.710 420.945 L 272.916 420.945 L 272.916 410.080 Z "/>
  </g>
</svg>