<svg version="1.1" width="398" height="137" viewBox="-1 -1 398 137" xmlns="http://www.w3.org/2000/svg" xmlns:xlink="http://www.w3.org/1999/xlink">
  <!-- Exported by Scratch - http://scratch.mit.edu/ -->
  <g id="ID0.544558594468981">
    <g id="Side Banner">
      <g id="Layer2">
        <path id="ID0.9517022077925503" fill="rgb(188,51,53)" d="M 822.560 232.282 L 804.982 181.199 L 824.871 129.783 L 748.012 142.145 L 739.416 245.623 L 822.560 232.282 Z " transform="matrix(0.5302289128303528, 0, 0, 0.5302289128303528, -40.85, -50.65)"/>
      </g>
      <g id="Layer3">
        <path id="ID0.5982564357109368" fill="rgb(188,51,53)" d="M 79.577 249.579 L 159.970 238.630 L 161.314 341.356 L 77.916 352.369 L 98.890 291.199 L 79.577 249.579 Z " transform="matrix(0.5302289128303528, 0, 0, 0.5302289128303528, -40.85, -50.65)"/>
      </g>
    </g>
    <g id="Main Banner">
      <path id="ID0.31002588383853436" fill="rgb(197,51,53)" d="M 149.751 193.730 L 756.317 96.786 L 753.212 232.113 L 147.249 326.693 L 149.751 193.730 Z " transform="matrix(0.5302289128303528, 0, 0, 0.5302289128303528, -40.85, -50.65)"/>
    </g>
    <g id="Layer6">
      <g id="ID0.8392372555099428">
        <path id="ID0.9275182019919157" fill="white" d="M 221.527 225.550 C 221.775 225.550 222.005 225.598 222.217 225.694 C 222.429 225.790 222.607 225.918 222.751 226.078 C 222.895 226.238 223.001 226.430 223.069 226.654 C 223.137 226.878 223.155 227.114 223.123 227.362 L 222.163 235.162 L 220.975 235.162 L 221.119 233.974 L 221.263 232.762 L 221.419 231.574 L 221.731 228.994 L 221.935 227.362 C 221.951 227.186 221.907 227.038 221.803 226.918 C 221.699 226.798 221.559 226.738 221.383 226.738 L 221.023 226.738 C 220.855 226.738 220.703 226.798 220.567 226.918 C 220.431 227.038 220.351 227.186 220.327 227.362 L 219.811 231.574 L 219.655 232.762 L 219.367 235.162 L 218.167 235.162 L 218.467 232.762 L 218.611 231.574 L 219.127 227.362 C 219.143 227.186 219.099 227.038 218.995 226.918 C 218.891 226.798 218.751 226.738 218.575 226.738 L 218.227 226.738 C 218.051 226.738 217.895 226.798 217.759 226.918 C 217.623 227.038 217.543 227.186 217.519 227.362 L 217.327 228.994 L 217.003 231.574 L 216.859 232.762 L 216.715 233.974 L 216.559 235.162 L 215.371 235.162 L 216.331 227.362 C 216.363 227.114 216.439 226.878 216.559 226.654 C 216.679 226.430 216.831 226.238 217.015 226.078 C 217.199 225.918 217.407 225.790 217.639 225.694 C 217.871 225.598 218.115 225.550 218.371 225.550 L 218.731 225.550 C 219.211 225.550 219.599 225.706 219.895 226.018 C 220.271 225.706 220.695 225.550 221.167 225.550 L 221.527 225.550 Z " transform="matrix(5.000308036804199, -0.8281751871109009, 0.8154443502426147, 4.92342472076416, -1165.9, -877.75)"/>
        <path id="ID0.1140757710672915" fill="white" d="M 224.467 225.550 L 225.667 225.550 L 224.479 235.162 L 223.291 235.162 L 224.467 225.550 Z " transform="matrix(5.000308036804199, -0.8281751871109009, 0.8154443502426147, 4.92342472076416, -1165.9, -877.75)"/>
        <path id="ID0.604165188036859" fill="white" d="M 229.975 232.510 L 229.879 233.338 L 229.855 233.446 C 229.791 233.822 229.633 234.152 229.381 234.436 C 229.129 234.720 228.827 234.926 228.475 235.054 C 228.379 235.086 228.281 235.112 228.181 235.132 C 228.081 235.152 227.979 235.162 227.875 235.162 L 227.863 235.162 L 227.827 235.162 L 226.843 235.162 L 225.655 235.162 L 225.799 233.974 L 227.995 233.974 C 228.163 233.966 228.315 233.902 228.451 233.782 C 228.587 233.662 228.663 233.518 228.679 233.350 L 228.907 231.466 C 228.931 231.298 228.891 231.152 228.787 231.028 C 228.683 230.904 228.543 230.842 228.367 230.842 L 228.007 230.842 L 227.971 230.842 L 227.959 230.842 C 227.719 230.834 227.501 230.784 227.305 230.692 C 227.109 230.600 226.941 230.478 226.801 230.326 C 226.661 230.174 226.555 229.994 226.483 229.786 C 226.411 229.578 226.383 229.358 226.399 229.126 L 226.411 229.018 L 226.615 227.362 C 226.663 226.970 226.817 226.620 227.077 226.312 C 227.337 226.004 227.651 225.786 228.019 225.658 C 228.219 225.586 228.431 225.550 228.655 225.550 L 230.827 225.550 L 230.683 226.738 L 229.495 226.738 L 228.511 226.738 C 228.335 226.738 228.179 226.798 228.043 226.918 C 227.907 227.038 227.827 227.186 227.803 227.362 L 227.599 229.018 C 227.583 229.194 227.627 229.342 227.731 229.462 C 227.835 229.582 227.971 229.646 228.139 229.654 L 228.511 229.654 L 228.511 229.642 C 228.511 229.642 228.515 229.646 228.523 229.654 C 228.739 229.654 228.939 229.690 229.123 229.762 C 229.459 229.890 229.719 230.108 229.903 230.416 C 230.087 230.724 230.155 231.074 230.107 231.466 L 229.999 232.294 L 229.975 232.510 Z " transform="matrix(5.000308036804199, -0.8281751871109009, 0.8154443502426147, 4.92342472076416, -1165.9, -877.75)"/>
        <path id="ID0.09160173172131181" fill="white" d="M 235.135 232.510 L 235.039 233.338 L 235.015 233.446 C 234.951 233.822 234.793 234.152 234.541 234.436 C 234.289 234.720 233.987 234.926 233.635 235.054 C 233.539 235.086 233.441 235.112 233.341 235.132 C 233.241 235.152 233.139 235.162 233.035 235.162 L 233.023 235.162 L 232.987 235.162 L 232.003 235.162 L 230.815 235.162 L 230.959 233.974 L 233.155 233.974 C 233.323 233.966 233.475 233.902 233.611 233.782 C 233.747 233.662 233.823 233.518 233.839 233.350 L 234.067 231.466 C 234.091 231.298 234.051 231.152 233.947 231.028 C 233.843 230.904 233.703 230.842 233.527 230.842 L 233.167 230.842 L 233.131 230.842 L 233.119 230.842 C 232.879 230.834 232.661 230.784 232.465 230.692 C 232.269 230.600 232.101 230.478 231.961 230.326 C 231.821 230.174 231.715 229.994 231.643 229.786 C 231.571 229.578 231.543 229.358 231.559 229.126 L 231.571 229.018 L 231.775 227.362 C 231.823 226.970 231.977 226.620 232.237 226.312 C 232.497 226.004 232.811 225.786 233.179 225.658 C 233.379 225.586 233.591 225.550 233.815 225.550 L 235.987 225.550 L 235.843 226.738 L 234.655 226.738 L 233.671 226.738 C 233.495 226.738 233.339 226.798 233.203 226.918 C 233.067 227.038 232.987 227.186 232.963 227.362 L 232.759 229.018 C 232.743 229.194 232.787 229.342 232.891 229.462 C 232.995 229.582 233.131 229.646 233.299 229.654 L 233.671 229.654 L 233.671 229.642 C 233.671 229.642 233.675 229.646 233.683 229.654 C 233.899 229.654 234.099 229.690 234.283 229.762 C 234.619 229.890 234.879 230.108 235.063 230.416 C 235.247 230.724 235.315 231.074 235.267 231.466 L 235.159 232.294 L 235.135 232.510 Z " transform="matrix(5.000308036804199, -0.8281751871109009, 0.8154443502426147, 4.92342472076416, -1165.9, -877.75)"/>
        <path id="ID0.5145415090955794" fill="white" d="M 237.223 225.550 L 238.423 225.550 L 237.235 235.162 L 236.047 235.162 L 237.223 225.550 Z " transform="matrix(5.000308036804199, -0.8281751871109009, 0.8154443502426147, 4.92342472076416, -1165.9, -877.75)"/>
        <path id="ID0.168786128051579" fill="white" d="M 238.483 235.162 L 239.659 225.550 L 240.859 225.550 L 239.827 233.974 L 242.623 233.974 L 242.479 235.162 L 238.483 235.162 Z " transform="matrix(5.000308036804199, -0.8281751871109009, 0.8154443502426147, 4.92342472076416, -1165.9, -877.75)"/>
        <path id="ID0.10126921813935041" fill="white" d="M 248.419 225.550 L 248.275 226.738 L 248.167 226.738 L 246.451 226.738 L 246.103 226.738 C 245.927 226.738 245.771 226.798 245.635 226.918 C 245.499 227.038 245.419 227.186 245.395 227.362 L 245.191 228.994 L 245.119 229.642 L 246.883 229.642 L 246.739 230.842 L 246.631 230.842 L 245.959 230.842 L 244.963 230.842 L 244.735 232.750 L 244.675 233.254 L 244.663 233.338 C 244.647 233.498 244.679 233.634 244.759 233.746 C 244.839 233.858 244.951 233.930 245.095 233.962 L 247.387 233.962 L 247.243 235.150 L 247.243 235.162 L 246.043 235.162 L 245.059 235.162 C 245.027 235.162 244.997 235.162 244.969 235.162 C 244.941 235.162 244.907 235.158 244.867 235.150 C 244.731 235.142 244.591 235.110 244.447 235.054 C 244.111 234.926 243.851 234.708 243.667 234.400 C 243.483 234.092 243.415 233.738 243.463 233.338 L 243.535 232.762 L 243.619 232.138 L 243.679 231.574 L 243.775 230.842 L 243.343 230.842 L 243.487 229.654 L 243.919 229.654 L 244.207 227.362 C 244.255 226.970 244.409 226.620 244.669 226.312 C 244.929 226.004 245.239 225.786 245.599 225.658 C 245.799 225.586 246.015 225.550 246.247 225.550 L 248.419 225.550 Z " transform="matrix(5.000308036804199, -0.8281751871109009, 0.8154443502426147, 4.92342472076416, -1165.9, -877.75)"/>
        <path id="ID0.7828993522562087" fill="white" d="M 252.535 232.510 L 252.439 233.338 L 252.415 233.446 C 252.351 233.822 252.193 234.152 251.941 234.436 C 251.689 234.720 251.387 234.926 251.035 235.054 C 250.939 235.086 250.841 235.112 250.741 235.132 C 250.641 235.152 250.539 235.162 250.435 235.162 L 250.423 235.162 L 250.387 235.162 L 249.403 235.162 L 248.215 235.162 L 248.359 233.974 L 250.555 233.974 C 250.723 233.966 250.875 233.902 251.011 233.782 C 251.147 233.662 251.223 233.518 251.239 233.350 L 251.467 231.466 C 251.491 231.298 251.451 231.152 251.347 231.028 C 251.243 230.904 251.103 230.842 250.927 230.842 L 250.567 230.842 L 250.531 230.842 L 250.519 230.842 C 250.279 230.834 250.061 230.784 249.865 230.692 C 249.669 230.600 249.501 230.478 249.361 230.326 C 249.221 230.174 249.115 229.994 249.043 229.786 C 248.971 229.578 248.943 229.358 248.959 229.126 L 248.971 229.018 L 249.175 227.362 C 249.223 226.970 249.377 226.620 249.637 226.312 C 249.897 226.004 250.211 225.786 250.579 225.658 C 250.779 225.586 250.991 225.550 251.215 225.550 L 253.387 225.550 L 253.243 226.738 L 252.055 226.738 L 251.071 226.738 C 250.895 226.738 250.739 226.798 250.603 226.918 C 250.467 227.038 250.387 227.186 250.363 227.362 L 250.159 229.018 C 250.143 229.194 250.187 229.342 250.291 229.462 C 250.395 229.582 250.531 229.646 250.699 229.654 L 251.071 229.654 L 251.071 229.642 C 251.071 229.642 251.075 229.646 251.083 229.654 C 251.299 229.654 251.499 229.690 251.683 229.762 C 252.019 229.890 252.279 230.108 252.463 230.416 C 252.647 230.724 252.715 231.074 252.667 231.466 L 252.559 232.294 L 252.535 232.510 Z " transform="matrix(5.000308036804199, -0.8281751871109009, 0.8154443502426147, 4.92342472076416, -1165.9, -877.75)"/>
        <path id="ID0.21738168830052018" fill="white" d="M 254.623 225.550 L 255.823 225.550 L 254.935 232.762 L 253.747 232.762 L 254.623 225.550 Z M 253.447 235.162 L 253.591 233.974 L 254.791 233.974 L 254.635 235.162 L 253.447 235.162 Z " transform="matrix(5.000308036804199, -0.8281751871109009, 0.8154443502426147, 4.92342472076416, -1165.9, -877.75)"/>
      </g>
      <g id="ID0.7145766573958099">
        <path id="ID0.017529893200844526" fill="white" d="M 199.236 222.178 L 208.100 249.459 L 236.785 249.459 L 213.578 266.319 L 222.442 293.601 L 199.236 276.740 L 176.029 293.601 L 184.893 266.319 L 161.686 249.459 L 190.372 249.459 L 199.236 222.178 Z " transform="matrix(0.2925150990486145, 2.2088806084489437e-17, -2.7611034075391397e-17, 0.2925150990486145, 8.1, 7)"/>
      </g>
      <g id="ID0.3864478301256895">
        <path id="ID0.7449872838333249" fill="white" d="M 199.236 222.178 L 208.100 249.459 L 236.785 249.459 L 213.578 266.319 L 222.442 293.601 L 199.236 276.740 L 176.029 293.601 L 184.893 266.319 L 161.686 249.459 L 190.372 249.459 L 199.236 222.178 Z " transform="matrix(0.2925150990486145, 2.2088806084489437e-17, -2.7611034075391397e-17, 0.2925150990486145, 272.4, -34.25)"/>
      </g>
    </g>
  </g>
</svg>