<svg version="1.1" width="101" height="45" viewBox="-1 -1 101 45" xmlns="http://www.w3.org/2000/svg" xmlns:xlink="http://www.w3.org/1999/xlink">
  <!-- Exported by Scratch - http://scratch.mit.edu/ -->
  <path id="ID0.5950722293928266" fill="#FFFF00" stroke="none" d="M 215 169.750 L 272 169.750 L 272 190.750 L 215 190.750 L 215 169.750 Z " transform="matrix(1, 0, 0, 1.0357142686843872, -197, -164.75)"/>
  <path id="ID0.39081439608708024" d="M 255.458 420.945 L 257.787 425.084 L 257.787 442.680 L 264.530 442.680 L 272.916 431.811 L 272.916 420.945 L 255.458 420.945 Z " transform="matrix(1, 0, 0, 1, -255, -399)"/>
  <path id="ID0.20040843496099114" d="M 255.458 420.945 L 257.787 416.804 L 257.787 399.209 L 264.530 399.209 L 272.916 410.080 L 272.916 420.945 L 255.458 420.945 Z " transform="matrix(1, 0, 0, 1, -255, -399)"/>
  <path id="ID0.9569212095811963" d="M 327.193 420.945 L 354.657 420.945 C 354.657 420.945 342.198 410.077 327.193 410.077 L 327.193 420.945 Z " transform="matrix(1, 0, 0, 1, -255, -399)"/>
  <g id="ID0.1101523470133543">
    <path id="ID0.3693602099083364" d="M 327.193 420.945 L 354.657 420.945 C 354.657 420.945 342.198 410.077 327.193 410.077 L 327.193 420.945 Z " transform="matrix(1, 0, 0, -1, -255, 442.85)"/>
  </g>
  <g id="ID0.440759533084929">
    <path id="ID0.5859161829575896" d="M 289.442 411.964 L 278.464 407.699 L 278.464 419.358 L 289.442 423.623 L 289.442 411.964 Z " transform="matrix(0.9321290254592896, -0.36212700605392456, 0.36212700605392456, 0.9321290254592896, -370.6, -268.15)"/>
  </g>
  <path id="ID0.5044111437164247" fill="#FFFF00" d="M 277.179 420.945 L 272.916 420.945 L 272.916 410.077 L 272.957 410.077 L 277.179 420.945 Z M 295.785 420.945 L 288.957 420.945 L 284.734 410.077 L 291.563 410.077 L 295.785 420.945 Z M 310.169 410.077 L 314.391 420.945 L 307.562 420.945 L 303.340 410.077 L 310.169 410.077 Z M 327.193 420.945 L 326.168 420.945 L 321.946 410.077 L 327.193 410.077 L 327.193 420.945 Z " transform="matrix(1, 0, 0, 1, -255, -399)"/>
  <g id="ID0.6653510681353509">
    <path id="ID0.8372124275192618" d="M 289.442 411.964 L 278.464 407.699 L 278.464 419.358 L 289.442 423.623 L 289.442 411.964 Z " transform="matrix(0.9321290254592896, 0.36212700605392456, 0.36212700605392456, -0.9321290254592896, -370.6, 312)"/>
  </g>
  <path id="ID0.13701365143060684" fill="#FFFF00" d="M 277.179 420.945 L 272.916 420.945 L 272.916 410.077 L 272.957 410.077 L 277.179 420.945 Z M 295.785 420.945 L 288.957 420.945 L 284.734 410.077 L 291.563 410.077 L 295.785 420.945 Z M 310.169 410.077 L 314.391 420.945 L 307.562 420.945 L 303.340 410.077 L 310.169 410.077 Z M 327.193 420.945 L 326.168 420.945 L 321.946 410.077 L 327.193 410.077 L 327.193 420.945 Z " transform="matrix(1, 0, 0, -1, -255, 442.85)"/>
</svg>