<svg version="1.1" width="188" height="253" viewBox="-1 -1 188 253" xmlns="http://www.w3.org/2000/svg" xmlns:xlink="http://www.w3.org/1999/xlink">
  <!-- Exported by Scratch - http://scratch.mit.edu/ -->
  <path id="ID0.8228302383795381" fill="#FFFFFF" stroke="none" stroke-linecap="round" d="M 22 180 L 153 147 L 153 209 L 22 180 Z " transform="matrix(0.5950382351875305, 0, 0, 0.3870967626571655, 48.9, -55.75)"/>
  <path id="ID0.8228302383795381" fill="#FFFFFF" stroke="none" stroke-linecap="round" d="M 22 180 L 153 147 L 153 209 L 22 180 Z " transform="matrix(0.5950382351875305, 0, 0, 0.3870967626571655, 49.4, 169.3)"/>
  <g id="ID0.6741354982368648">
    <g id="ID0.45999307511374354">
      <path id="ID0.6878089858219028" fill="rgb(227,123,28)" d="M 127.191 18.611 L 128.346 17.448 C 153.548 -7.113 164.898 17.448 164.898 17.448 L 164.898 247.119 C 164.898 247.119 153.548 271.679 128.346 247.119 L 127.191 245.955 L 125.927 132.283 L 127.191 18.611 Z " transform="matrix(0.8223620057106018, 0, 0, 0.8223620057106018, -4, 19.1)"/>
    </g>
    <g id="ID0.7390325530432165">
      <path id="ID0.5636746301315725" fill="rgb(2,88,107)" d="M 190.526 132.420 C 190.526 132.420 186.841 110.220 173.230 111.065 C 159.620 111.910 38.492 120.973 38.492 120.973 L 38.492 132.420 L 190.526 132.420 Z " transform="matrix(1, 0, 0, 1.0297000408172607, -11, -9.25)"/>
    </g>
    <g id="ID0.2816509325057268">
      <path id="ID0.5781778669916093" fill="rgb(2,88,107)" d="M 190.526 132.420 C 190.526 132.420 186.841 110.220 173.230 111.065 C 159.620 111.910 38.492 120.973 38.492 120.973 L 38.492 132.420 L 190.526 132.420 Z " transform="matrix(1, 0, 0, -1, -11, 258.8)"/>
    </g>
    <g id="ID0.38539737928658724">
      <path id="ID0.9039212577044964" fill="rgb(244,165,29)" d="M 46.791 127.514 C 46.791 127.514 37.918 75.789 24.856 75.789 C 11.794 75.789 11.425 94.619 11.425 103.297 C 11.425 111.974 11.425 120.336 11.425 120.336 L 24.856 127.514 L 46.791 127.514 Z " transform="matrix(1, 0, 0, 1.0045900344848633, -11, -1.55)"/>
    </g>
    <g id="ID0.13021612958982587">
      <path id="ID0.9836127017624676" fill="rgb(244,165,29)" d="M 46.791 127.514 C 46.791 127.514 37.918 75.789 24.856 75.789 C 11.794 75.789 11.425 94.619 11.425 103.297 C 11.425 111.974 11.425 120.336 11.425 120.336 L 24.856 127.514 L 46.791 127.514 Z " transform="matrix(1, 0, 0, -1, -11, 253.75)"/>
    </g>
    <path id="ID0.17431939393281937" fill="rgb(0,62,75)" d="M 132.452 120.336 C 138.462 120.336 143.909 121.624 147.852 123.704 C 151.796 125.784 154.237 128.656 154.237 131.826 C 154.237 134.996 151.796 137.868 147.852 139.948 C 143.909 142.028 138.462 143.316 132.452 143.316 C 126.442 143.316 120.995 142.028 117.052 139.948 C 113.108 137.868 110.667 134.996 110.667 131.826 C 110.667 128.656 113.108 125.784 117.052 123.704 C 120.995 121.624 126.442 120.336 132.452 120.336 Z " transform="matrix(1, 0, 0, 1, -11, -6)"/>
    <g id="ID0.68939751945436">
      <path id="ID0.20158234564587474" fill="rgb(133,210,224)" d="M 132.452 120.336 C 138.462 120.336 143.909 121.624 147.852 123.704 C 151.796 125.784 154.237 128.656 154.237 131.826 C 154.237 134.996 151.796 137.868 147.852 139.948 C 143.909 142.028 138.462 143.316 132.452 143.316 C 126.442 143.316 120.995 142.028 117.052 139.948 C 113.108 137.868 110.667 134.996 110.667 131.826 C 110.667 128.656 113.108 125.784 117.052 123.704 C 120.995 121.624 126.442 120.336 132.452 120.336 Z " transform="matrix(0.8606169819831848, 0, 0, 0.8606169819831848, 7.45, 12.35)"/>
    </g>
    <path id="ID0.8877199394628406" fill="rgb(244,165,29)" d="M 127.191 18.611 L 128.346 17.448 C 153.548 -7.113 164.898 17.448 164.898 17.448 L 164.898 247.119 C 164.898 247.119 153.548 271.679 128.346 247.119 L 127.191 245.955 L 126.133 150.818 C 126.133 150.818 136.690 142.664 136.687 132.283 C 136.683 121.902 126.121 114.836 126.121 114.836 L 127.191 18.611 Z " transform="matrix(1, 0, 0, 1, -11, -6)"/>
    <g id="ID0.6346852378919721">
      <g id="ID0.5910693565383554">
        <path id="ID0.11639499804005027" fill="rgb(89,38,13)" d="M 199.600 133.758 C 199.600 133.758 199.353 132.943 197.711 131.701 C 195.422 129.970 197.169 126.717 197.711 125.201 C 198.138 124.006 200.723 116.753 200.723 111.206 C 200.723 95.768 198.907 88.052 196.516 88.052 C 194.126 88.052 194.803 125.944 194.803 125.944 L 194.803 133.758 L 199.600 133.758 Z " transform="matrix(1.281489610671997, 0, 0, -1.281489610671997, -70.2, 298.35)"/>
      </g>
      <g id="ID0.15211024321615696">
        <path id="ID0.4361965828575194" fill="rgb(89,38,13)" d="M 199.600 133.758 C 199.600 133.758 199.353 132.943 197.711 131.701 C 195.422 129.970 197.169 126.717 197.711 125.201 C 198.138 124.006 200.723 116.753 200.723 111.206 C 200.723 95.768 198.907 88.052 196.516 88.052 C 194.126 88.052 194.803 125.944 194.803 125.944 L 194.803 133.758 L 199.600 133.758 Z " transform="matrix(1.281489610671997, 0, 0, 1.281489610671997, -70.2, -44.3)"/>
      </g>
    </g>
  </g>
</svg>